# xmcd CD database file
#
# Track frame offsets:
#	150
#	23747
#	44445
#
# Disc length: 908 seconds
#
# Revision: 0
# Processed by: cddbd v1.5.1PL0 Copyright (c) Steve Scherf et al.
# Submitted via: CDex 1.51
#
DISCID=1c038a03
DTITLE=Denki Groove - ガリガリ君
DYEAR=1998
DGENRE=Techno
TTITLE0=ガリガリ君 (Original mix)
TTITLE1=ガリガリ君 (1998 Novelty mix)
TTITLE2=ガリガリ君 (Poem mix featuring THE 天久聖一)
EXTD=YEAR: 1998
EXTT0=
EXTT1=
EXTT2=
PLAYORDER=
